<svg id="Group_1102" data-name="Group 1102" xmlns="http://www.w3.org/2000/svg" xmlns:xlink="http://www.w3.org/1999/xlink" width="119.613" height="125.894" viewBox="0 0 119.613 125.894">
  <defs>
    <clipPath id="clip-path">
      <rect id="Rectangle_717" data-name="Rectangle 717" width="119.613" height="125.894" fill="none"/>
    </clipPath>
  </defs>
  <g id="Group_1102-2" data-name="Group 1102" clip-path="url(#clip-path)">
    <path id="Path_1895" data-name="Path 1895" d="M100.171,124.394H21.721a3.962,3.962,0,0,1-3.95-3.95V5.45a3.962,3.962,0,0,1,3.95-3.95h78.45a3.962,3.962,0,0,1,3.95,3.95V120.444a3.962,3.962,0,0,1-3.95,3.95" fill="#b0b2b5"/>
    <rect id="Rectangle_714" data-name="Rectangle 714" width="86.35" height="122.894" rx="3.95" transform="translate(17.771 1.5)" fill="none" stroke="#4d4d4f" stroke-linecap="round" stroke-linejoin="round" stroke-width="3"/>
    <rect id="Rectangle_715" data-name="Rectangle 715" width="62.435" height="85.585" transform="translate(29.728 14.949)" fill="#cbe4f7"/>
    <rect id="Rectangle_716" data-name="Rectangle 716" width="62.435" height="85.585" transform="translate(29.728 14.949)" fill="none" stroke="#4d4d4f" stroke-linecap="round" stroke-linejoin="round" stroke-width="3"/>
    <path id="Path_1896" data-name="Path 1896" d="M60.945,109.559a3.4,3.4,0,1,1-3.4,3.4,3.4,3.4,0,0,1,3.4-3.4" fill="#4d4d4f"/>
    <path id="Path_1897" data-name="Path 1897" d="M117.712,97.848c-1.037.1-3.352,1.619-5.312,3.478-2.074,1.956-2.452,2.758-1.532,3.208.375.195.951-.165,2.37-1.463a36.437,36.437,0,0,1,2.956-2.4c1.967-1.456,2.332-1.791,2.325-2.152a.769.769,0,0,0-.807-.674" fill="#77787b" fill-rule="evenodd"/>
    <path id="Path_1898" data-name="Path 1898" d="M117.712,97.848c-1.037.1-3.352,1.619-5.312,3.478-2.074,1.956-2.452,2.758-1.532,3.208.375.195.951-.165,2.37-1.463a36.437,36.437,0,0,1,2.956-2.4c1.967-1.456,2.332-1.791,2.325-2.152A.769.769,0,0,0,117.712,97.848Z" fill="none" stroke="#77787b" stroke-miterlimit="10" stroke-width="0.489"/>
    <path id="Path_1899" data-name="Path 1899" d="M118.61,106.439a19.861,19.861,0,0,0-3.427-.139c-2.13.028-3,.107-3.344.315-1.237.764-.648,1.687,1.091,1.719a53.1,53.1,0,0,0,5.4-.416c1.247-.256,1.412-1.1.281-1.479" fill="#77787b" fill-rule="evenodd"/>
    <path id="Path_1900" data-name="Path 1900" d="M118.61,106.439a19.861,19.861,0,0,0-3.427-.139c-2.13.028-3,.107-3.344.315-1.237.764-.648,1.687,1.091,1.719a53.1,53.1,0,0,0,5.4-.416C119.576,107.662,119.741,106.821,118.61,106.439Z" fill="none" stroke="#77787b" stroke-miterlimit="10" stroke-width="0.489"/>
    <path id="Path_1901" data-name="Path 1901" d="M106.957,95.784c-.689,0-.819.46-.617,2.237.217,2,.64,3.7,1,4.043.734.707,1.319.23,1.243-1.009-.152-2.563-.6-4.6-1.11-5.111a.777.777,0,0,0-.512-.16" fill="#77787b" fill-rule="evenodd"/>
    <path id="Path_1902" data-name="Path 1902" d="M106.957,95.784c-.689,0-.819.46-.617,2.237.217,2,.64,3.7,1,4.043.734.707,1.319.23,1.243-1.009-.152-2.563-.6-4.6-1.11-5.111A.777.777,0,0,0,106.957,95.784Z" fill="none" stroke="#77787b" stroke-miterlimit="10" stroke-width="0.489"/>
    <path id="Path_1903" data-name="Path 1903" d="M103.7,103.031c-3.41-1.56-6.066-1.894-6.46-.795-.181.534.293.928,1.357,1.142.478.087,2.023.515,3.43.955,2.7.831,3.387.872,3.513.223.108-.479-.29-.822-1.84-1.525" fill="#77787b" fill-rule="evenodd"/>
    <path id="Path_1904" data-name="Path 1904" d="M103.7,103.031c-3.41-1.56-6.066-1.894-6.46-.795-.181.534.293.928,1.357,1.142.478.087,2.023.515,3.43.955,2.7.831,3.387.872,3.513.223C105.644,104.077,105.246,103.734,103.7,103.031Z" fill="none" stroke="#77787b" stroke-miterlimit="10" stroke-width="0.489"/>
    <path id="Path_1905" data-name="Path 1905" d="M109.27,110.489c-.463.178-.52.539-.189,1.3.133.294.518,1.623.881,2.952.6,2.268.669,2.416,1.008,2.409.318-.005.36-.048.469-.443a12.921,12.921,0,0,0-.517-4.538c-.457-1.232-1.115-1.888-1.652-1.677" fill="#77787b" fill-rule="evenodd"/>
    <path id="Path_1906" data-name="Path 1906" d="M109.27,110.489c-.463.178-.52.539-.189,1.3.133.294.518,1.623.881,2.952.6,2.268.669,2.416,1.008,2.409.318-.005.36-.048.469-.443a12.921,12.921,0,0,0-.517-4.538C110.465,110.934,109.807,110.278,109.27,110.489Z" fill="none" stroke="#77787b" stroke-miterlimit="10" stroke-width="0.489"/>
    <path id="Path_1907" data-name="Path 1907" d="M105.677,108.815c-.5-.129-.868.079-2.362,1.3-.783.64-2.11,1.692-2.947,2.3-1.82,1.369-2.435,1.984-2.52,2.527a.73.73,0,0,0,.8.854c.762-.056,4.98-3.069,6.687-4.8.927-.918.989-1.025.939-1.448-.062-.5-.171-.644-.6-.742" fill="#77787b" fill-rule="evenodd"/>
    <path id="Path_1908" data-name="Path 1908" d="M105.677,108.815c-.5-.129-.868.079-2.362,1.3-.783.64-2.11,1.692-2.947,2.3-1.82,1.369-2.435,1.984-2.52,2.527a.73.73,0,0,0,.8.854c.762-.056,4.98-3.069,6.687-4.8.927-.918.989-1.025.939-1.448C106.212,109.06,106.1,108.913,105.677,108.815Z" fill="none" stroke="#77787b" stroke-miterlimit="10" stroke-width="0.489"/>
    <path id="Path_1909" data-name="Path 1909" d="M23.47,22.306c-.463-.91-2.667-2.484-5.059-3.612-2.521-1.2-3.387-1.259-3.471-.26-.045.411.489.809,2.176,1.643a35.52,35.52,0,0,1,3.236,1.847c2.027,1.278,2.463,1.492,2.789,1.358a.754.754,0,0,0,.329-.976" fill="#77787b" fill-rule="evenodd"/>
    <path id="Path_1910" data-name="Path 1910" d="M23.47,22.306c-.463-.91-2.667-2.484-5.059-3.612-2.521-1.2-3.387-1.259-3.471-.26-.045.411.489.809,2.176,1.643a35.52,35.52,0,0,1,3.236,1.847c2.027,1.278,2.463,1.492,2.789,1.358A.754.754,0,0,0,23.47,22.306Z" fill="none" stroke="#77787b" stroke-miterlimit="10" stroke-width="0.489"/>
    <path id="Path_1911" data-name="Path 1911" d="M15.949,26.175A19.516,19.516,0,0,0,14.86,23c-.782-1.934-1.162-2.7-1.475-2.94-1.136-.857-1.769.008-1.181,1.606a51.71,51.71,0,0,0,2.3,4.779c.676,1.046,1.5.9,1.449-.269" fill="#77787b" fill-rule="evenodd"/>
    <path id="Path_1912" data-name="Path 1912" d="M15.949,26.175A19.516,19.516,0,0,0,14.86,23c-.782-1.934-1.162-2.7-1.475-2.94-1.136-.857-1.769.008-1.181,1.606a51.71,51.71,0,0,0,2.3,4.779C15.176,27.49,16,27.342,15.949,26.175Z" fill="none" stroke="#77787b" stroke-miterlimit="10" stroke-width="0.489"/>
    <path id="Path_1913" data-name="Path 1913" d="M21.535,11.76c-.246-.628-.71-.584-2.26.231a9.908,9.908,0,0,0-3.336,2.344c-.385.92.258,1.285,1.362.776,2.284-1.049,3.984-2.183,4.269-2.827a.755.755,0,0,0-.035-.524" fill="#77787b" fill-rule="evenodd"/>
    <path id="Path_1914" data-name="Path 1914" d="M21.535,11.76c-.246-.628-.71-.584-2.26.231a9.908,9.908,0,0,0-3.336,2.344c-.385.92.258,1.285,1.362.776,2.284-1.049,3.984-2.183,4.269-2.827A.755.755,0,0,0,21.535,11.76Z" fill="none" stroke="#77787b" stroke-miterlimit="10" stroke-width="0.489"/>
    <path id="Path_1915" data-name="Path 1915" d="M13.766,11.357c.213-3.665-.425-6.208-1.568-6.177-.551.024-.742.6-.56,1.643.091.468.249,2.029.346,3.47.2,2.756.407,3.4,1.044,3.285.475-.072.646-.557.738-2.221" fill="#77787b" fill-rule="evenodd"/>
    <path id="Path_1916" data-name="Path 1916" d="M13.766,11.357c.213-3.665-.425-6.208-1.568-6.177-.551.024-.742.6-.56,1.643.091.468.249,2.029.346,3.47.2,2.756.407,3.4,1.044,3.285C13.5,13.506,13.674,13.021,13.766,11.357Z" fill="none" stroke="#77787b" stroke-miterlimit="10" stroke-width="0.489"/>
    <path id="Path_1917" data-name="Path 1917" d="M8.939,19.089c-.327-.359-.677-.283-1.25.288-.222.226-1.3,1.048-2.382,1.851C3.452,22.584,3.341,22.7,3.467,23c.118.288.172.31.571.27a12.655,12.655,0,0,0,3.957-2.082c.962-.854,1.327-1.688.944-2.1" fill="#77787b" fill-rule="evenodd"/>
    <path id="Path_1918" data-name="Path 1918" d="M8.939,19.089c-.327-.359-.677-.283-1.25.288-.222.226-1.3,1.048-2.382,1.851C3.452,22.584,3.341,22.7,3.467,23c.118.288.172.31.571.27a12.655,12.655,0,0,0,3.957-2.082C8.957,20.338,9.322,19.5,8.939,19.089Z" fill="none" stroke="#77787b" stroke-miterlimit="10" stroke-width="0.489"/>
    <path id="Path_1919" data-name="Path 1919" d="M9.191,15.217c-.06-.5-.38-.764-2.028-1.692C6.3,13.037,4.869,12.2,4.017,11.652c-1.9-1.175-2.675-1.517-3.2-1.4a.717.717,0,0,0-.5,1.034c.322.675,4.568,3.454,6.75,4.4,1.167.52,1.286.538,1.655.343.431-.233.526-.385.465-.808" fill="#77787b" fill-rule="evenodd"/>
    <path id="Path_1920" data-name="Path 1920" d="M9.191,15.217c-.06-.5-.38-.764-2.028-1.692C6.3,13.037,4.869,12.2,4.017,11.652c-1.9-1.175-2.675-1.517-3.2-1.4a.717.717,0,0,0-.5,1.034c.322.675,4.568,3.454,6.75,4.4,1.167.52,1.286.538,1.655.343C9.157,15.792,9.252,15.64,9.191,15.217Z" fill="none" stroke="#77787b" stroke-miterlimit="10" stroke-width="0.489"/>
    <line id="Line_259" data-name="Line 259" x2="34.872" transform="translate(43.509 50.042)" fill="none" stroke="#4d4d4f" stroke-linecap="round" stroke-linejoin="round" stroke-width="3.28"/>
    <line id="Line_260" data-name="Line 260" x2="34.872" transform="translate(43.509 61.415)" fill="none" stroke="#4d4d4f" stroke-linecap="round" stroke-linejoin="round" stroke-width="3.28"/>
    <line id="Line_261" data-name="Line 261" x2="34.872" transform="translate(43.509 72.473)" fill="none" stroke="#4d4d4f" stroke-linecap="round" stroke-linejoin="round" stroke-width="3.28"/>
    <path id="Path_1921" data-name="Path 1921" d="M41.828,34.607V14.949h12.5V34.607l-6.25-6.022Z" fill="#f27920"/>
    <path id="Path_1922" data-name="Path 1922" d="M41.828,34.607V14.949h12.5V34.607l-6.25-6.022Z" fill="none" stroke="#4d4d4f" stroke-linecap="round" stroke-linejoin="round" stroke-width="2.897"/>
  </g>
</svg>
