<svg id="Group_1098" data-name="Group 1098" xmlns="http://www.w3.org/2000/svg" xmlns:xlink="http://www.w3.org/1999/xlink" width="127.347" height="126.764" viewBox="0 0 127.347 126.764">
  <defs>
    <clipPath id="clip-path">
      <rect id="Rectangle_709" data-name="Rectangle 709" width="127.347" height="126.764" transform="translate(0 0)" fill="none"/>
    </clipPath>
  </defs>
  <g id="Group_1098-2" data-name="Group 1098" clip-path="url(#clip-path)">
    <path id="Path_1821" data-name="Path 1821" d="M110.553,47.737s5.6-46.53-46.558-46.235" fill="none" stroke="#4d4d4f" stroke-linecap="round" stroke-linejoin="round" stroke-width="3"/>
    <path id="Path_1822" data-name="Path 1822" d="M17.437,47.737S11.838,1.207,63.995,1.5" fill="none" stroke="#4d4d4f" stroke-linecap="round" stroke-linejoin="round" stroke-width="3"/>
    <path id="Path_1823" data-name="Path 1823" d="M17.973,82.917h-1.2a8.809,8.809,0,0,1-8.784-8.784V51.674a8.81,8.81,0,0,1,8.784-8.785h1.2a8.81,8.81,0,0,1,8.784,8.785V74.133a8.81,8.81,0,0,1-8.784,8.784" fill="#f27920"/>
    <path id="Rectangle_704" data-name="Rectangle 704" d="M8.784,0h1.2a8.784,8.784,0,0,1,8.784,8.784V31.243a8.785,8.785,0,0,1-8.785,8.785h-1.2A8.784,8.784,0,0,1,0,31.244V8.784A8.784,8.784,0,0,1,8.784,0Z" transform="translate(7.989 42.889)" fill="none" stroke="#4d4d4f" stroke-linecap="round" stroke-linejoin="round" stroke-width="3"/>
    <path id="Path_1824" data-name="Path 1824" d="M7.989,54.672C5.023,54.672,1.5,57.1,1.5,60.064v5.149c0,2.965,3.523,5.391,6.489,5.391Z" fill="#f27920"/>
    <path id="Path_1825" data-name="Path 1825" d="M7.989,54.672C5.023,54.672,1.5,57.1,1.5,60.064v5.149c0,2.965,3.523,5.391,6.489,5.391Z" fill="none" stroke="#4d4d4f" stroke-linecap="round" stroke-linejoin="round" stroke-width="3"/>
    <path id="Path_1826" data-name="Path 1826" d="M110.46,82.917h-1.2a8.809,8.809,0,0,1-8.783-8.784V51.674a8.809,8.809,0,0,1,8.783-8.785h1.2a8.81,8.81,0,0,1,8.783,8.785V74.133a8.81,8.81,0,0,1-8.783,8.784" fill="#f27920"/>
    <path id="Rectangle_705" data-name="Rectangle 705" d="M8.784,0h1.2a8.784,8.784,0,0,1,8.784,8.784V31.243a8.785,8.785,0,0,1-8.785,8.785h-1.2A8.784,8.784,0,0,1,0,31.244V8.784A8.784,8.784,0,0,1,8.784,0Z" transform="translate(100.476 42.889)" fill="none" stroke="#4d4d4f" stroke-linecap="round" stroke-linejoin="round" stroke-width="3"/>
    <path id="Path_1827" data-name="Path 1827" d="M119.244,54.672c2.966,0,6.489,2.426,6.489,5.392v5.149c0,2.965-3.523,5.391-6.489,5.391Z" fill="#f27920"/>
    <path id="Path_1828" data-name="Path 1828" d="M119.244,54.672c2.966,0,6.489,2.426,6.489,5.392v5.149c0,2.965-3.523,5.391-6.489,5.391Z" fill="none" stroke="#4d4d4f" stroke-linecap="round" stroke-linejoin="round" stroke-width="3"/>
    <path id="Path_1829" data-name="Path 1829" d="M96.525,125.264H30.574a3.962,3.962,0,0,1-3.95-3.95V24.109a3.961,3.961,0,0,1,3.95-3.95H96.525a3.961,3.961,0,0,1,3.95,3.95v97.205a3.962,3.962,0,0,1-3.95,3.95" fill="#b0b2b5"/>
    <rect id="Rectangle_706" data-name="Rectangle 706" width="73.851" height="105.105" rx="3.95" transform="translate(26.624 20.159)" fill="none" stroke="#4d4d4f" stroke-linecap="round" stroke-linejoin="round" stroke-width="3"/>
    <rect id="Rectangle_707" data-name="Rectangle 707" width="53.398" height="73.197" transform="translate(36.851 31.661)" fill="#b7def5"/>
    <rect id="Rectangle_708" data-name="Rectangle 708" width="53.398" height="73.197" transform="translate(36.851 31.661)" fill="none" stroke="#4d4d4f" stroke-linecap="round" stroke-linejoin="round" stroke-width="3"/>
    <path id="Path_1830" data-name="Path 1830" d="M63.549,112.577a2.907,2.907,0,1,1-2.907,2.907,2.907,2.907,0,0,1,2.907-2.907" fill="#4d4d4f"/>
    <line id="Line_237" data-name="Line 237" y2="4.731" transform="translate(48.29 63.247)" fill="none" stroke="#71a554" stroke-linecap="round" stroke-linejoin="round" stroke-width="3"/>
    <line id="Line_238" data-name="Line 238" y2="14.075" transform="translate(55.767 58.691)" fill="none" stroke="#71a554" stroke-linecap="round" stroke-linejoin="round" stroke-width="3"/>
    <line id="Line_239" data-name="Line 239" y2="28.873" transform="translate(63.364 51.194)" fill="none" stroke="#71a554" stroke-linecap="round" stroke-linejoin="round" stroke-width="3"/>
    <line id="Line_240" data-name="Line 240" y2="21.492" transform="translate(71.27 54.132)" fill="none" stroke="#71a554" stroke-linecap="round" stroke-linejoin="round" stroke-width="3"/>
    <line id="Line_241" data-name="Line 241" y2="6.362" transform="translate(78.809 63.247)" fill="none" stroke="#71a554" stroke-linecap="round" stroke-linejoin="round" stroke-width="3"/>
    <path id="Path_1831" data-name="Path 1831" d="M12.231,36.089s-4.63.529-4.936,5" fill="none" stroke="#77787b" stroke-linecap="round" stroke-linejoin="round" stroke-width="2.4"/>
    <path id="Path_1832" data-name="Path 1832" d="M11.8,29.7S2.317,29.385,1.786,41.28" fill="none" stroke="#77787b" stroke-linecap="round" stroke-linejoin="round" stroke-width="2.4"/>
    <path id="Path_1833" data-name="Path 1833" d="M115.7,36.089s4.63.529,4.936,5" fill="none" stroke="#77787b" stroke-linecap="round" stroke-linejoin="round" stroke-width="2.4"/>
    <path id="Path_1834" data-name="Path 1834" d="M116.137,29.7s9.48-.319,10.011,11.576" fill="none" stroke="#77787b" stroke-linecap="round" stroke-linejoin="round" stroke-width="2.4"/>
  </g>
</svg>
