<svg id="Group_1101" data-name="Group 1101" xmlns="http://www.w3.org/2000/svg" xmlns:xlink="http://www.w3.org/1999/xlink" width="112.562" height="126.034" viewBox="0 0 112.562 126.034">
  <defs>
    <clipPath id="clip-path">
      <rect id="Rectangle_713" data-name="Rectangle 713" width="112.562" height="126.034" fill="none"/>
    </clipPath>
  </defs>
  <g id="Group_1101-2" data-name="Group 1101" clip-path="url(#clip-path)">
    <path id="Path_1882" data-name="Path 1882" d="M95.008,6.388S95.349,1.51,90.6,1.512H15.918S13.612,1.2,11.073,3.8L3.889,11.154S1.5,12.931,1.5,19.187v95.956s0,3.733,1.421,5.959L13.069,104H90.548s4.043,1.007,4.412-5.134h.048Z" fill="#f27920"/>
    <path id="Path_1883" data-name="Path 1883" d="M95.008,6.388S95.349,1.51,90.6,1.512H15.918S13.612,1.2,11.073,3.8L3.889,11.154S1.5,12.931,1.5,19.187v95.956s0,3.733,1.421,5.959L13.069,104H90.548s4.043,1.007,4.412-5.134h.048Z" fill="none" stroke="#4d4d4f" stroke-linecap="round" stroke-linejoin="round" stroke-width="3"/>
    <line id="Line_251" data-name="Line 251" y1="100.274" transform="translate(13.069 3.725)" fill="none" stroke="#4d4d4f" stroke-linecap="round" stroke-linejoin="round" stroke-width="3"/>
    <path id="Path_1884" data-name="Path 1884" d="M91.871,104,81.843,124.531H9.311s-4.714-.276-6.39-3.429l9.035-15.227s1.041-1.956,2.579-1.956Z" fill="#fff4da"/>
    <path id="Path_1885" data-name="Path 1885" d="M91.871,104,81.843,124.531H9.311s-4.714-.276-6.39-3.429l9.035-15.227s1.041-1.956,2.579-1.956Z" fill="none" stroke="#4d4d4f" stroke-linecap="round" stroke-linejoin="round" stroke-width="3"/>
    <line id="Line_252" data-name="Line 252" x1="74.15" transform="translate(11 124.534)" fill="none" stroke="#4d4d4f" stroke-linecap="round" stroke-linejoin="round" stroke-width="3"/>
    <line id="Line_253" data-name="Line 253" x1="62.077" transform="translate(22.962 114.874)" fill="none" stroke="#4d4d4f" stroke-linecap="round" stroke-linejoin="round" stroke-width="3"/>
    <line id="Line_254" data-name="Line 254" x2="24.402" transform="translate(25.618 31.147)" fill="none" stroke="#4d4d4f" stroke-linecap="round" stroke-linejoin="round" stroke-width="3"/>
    <line id="Line_255" data-name="Line 255" x2="16.728" transform="translate(25.618 42.788)" fill="none" stroke="#4d4d4f" stroke-linecap="round" stroke-linejoin="round" stroke-width="3"/>
    <line id="Line_256" data-name="Line 256" x2="14.512" transform="translate(25.618 54.43)" fill="none" stroke="#4d4d4f" stroke-linecap="round" stroke-linejoin="round" stroke-width="3"/>
    <path id="Path_1886" data-name="Path 1886" d="M111.059,56.078A30.97,30.97,0,1,1,80.088,25.107a30.971,30.971,0,0,1,30.971,30.971" fill="#bed447"/>
    <path id="Path_1887" data-name="Path 1887" d="M111.059,56.078A30.97,30.97,0,1,1,80.088,25.107,30.971,30.971,0,0,1,111.059,56.078Z" fill="none" stroke="#4d4d4f" stroke-linecap="round" stroke-linejoin="round" stroke-width="3"/>
    <path id="Path_1888" data-name="Path 1888" d="M88.92,46.776s-3.165-5.857-8.782-5.85c0,0-7.933,0-7.861,7.729,0,0-.412,4.7,7.861,6.669,0,0,9.476,2.687,8.531,9.351,0,0-.389,6.222-8.531,6.459,0,0-6.573-.237-8.739-6.146" fill="none" stroke="#4d4d4f" stroke-linejoin="round" stroke-width="4.4"/>
    <line id="Line_257" data-name="Line 257" y2="8.28" transform="translate(80.138 32.979)" fill="none" stroke="#4d4d4f" stroke-linejoin="round" stroke-width="4.4"/>
    <line id="Line_258" data-name="Line 258" y2="8.28" transform="translate(80.138 70.897)" fill="none" stroke="#4d4d4f" stroke-linejoin="round" stroke-width="4.4"/>
    <path id="Path_1889" data-name="Path 1889" d="M107.692,81.474c-.3.114-.456.705-.539,1.938a6.543,6.543,0,0,1-1.4,3.96,10.461,10.461,0,0,1-2.6,2.695,5.439,5.439,0,0,1-1.119.456,1.523,1.523,0,0,0-.819.436c-.2.259-.2.269.01.725a1.944,1.944,0,0,0,.3.529,6.544,6.544,0,0,0,.922.166,4.119,4.119,0,0,1,3.276,1.669,11.462,11.462,0,0,1,1.13,3.669c.124.643.331.891.777.891.467,0,.622-.28.705-1.264a6.579,6.579,0,0,1,1.493-3.721,7.41,7.41,0,0,1,1.917-1.545.58.58,0,0,0,.487-.56,1.4,1.4,0,0,0-.953-.891c-.446,0-1.576-1.368-1.939-2.343a18.515,18.515,0,0,1-.777-5.1c-.01-1.347-.031-1.5-.207-1.637a.64.64,0,0,0-.664-.073m.446,7.909a5.411,5.411,0,0,0,1.721,1.866c.373.155.373.217,0,.446a6.909,6.909,0,0,0-1.866,2.031l-.342.643-.29-.6a4.633,4.633,0,0,0-2.644-2.374c-.28-.093-.528-.187-.549-.2a6.606,6.606,0,0,1,.715-.736,11.2,11.2,0,0,0,2.094-2.726l.425-.767.228.922a8.555,8.555,0,0,0,.508,1.493" fill="#77787b" fill-rule="evenodd"/>
    <path id="Path_1890" data-name="Path 1890" d="M107.692,81.474c-.3.114-.456.705-.539,1.938a6.543,6.543,0,0,1-1.4,3.96,10.461,10.461,0,0,1-2.6,2.695,5.439,5.439,0,0,1-1.119.456,1.523,1.523,0,0,0-.819.436c-.2.259-.2.269.01.725a1.944,1.944,0,0,0,.3.529,6.544,6.544,0,0,0,.922.166,4.119,4.119,0,0,1,3.276,1.669,11.462,11.462,0,0,1,1.13,3.669c.124.643.331.891.777.891.467,0,.622-.28.705-1.264a6.579,6.579,0,0,1,1.493-3.721,7.41,7.41,0,0,1,1.917-1.545.58.58,0,0,0,.487-.56,1.4,1.4,0,0,0-.953-.891c-.446,0-1.576-1.368-1.939-2.343a18.515,18.515,0,0,1-.777-5.1c-.01-1.347-.031-1.5-.207-1.637A.64.64,0,0,0,107.692,81.474Zm.446,7.909a5.411,5.411,0,0,0,1.721,1.866c.373.155.373.217,0,.446a6.909,6.909,0,0,0-1.866,2.031l-.342.643-.29-.6a4.633,4.633,0,0,0-2.644-2.374c-.28-.093-.528-.187-.549-.2a6.606,6.606,0,0,1,.715-.736,11.2,11.2,0,0,0,2.094-2.726l.425-.767.228.922A8.555,8.555,0,0,0,108.138,89.383Z" fill="none" stroke="#77787b" stroke-miterlimit="10" stroke-width="0.66"/>
    <path id="Path_1891" data-name="Path 1891" d="M100.187,106.482c-.146.1-.208.352-.27,1.016a8.656,8.656,0,0,1-.974,2.985,4.4,4.4,0,0,1-2.5,2.3c-.488.135-1.192.84-1.192,1.2,0,.28.269.456,1.015.705a2.22,2.22,0,0,1,1.41,1.327,13.976,13.976,0,0,1,.9,3.794c.166,1.917.342,2.291,1.026,2.291.57,0,.715-.228.84-1.306a6.087,6.087,0,0,1,2.726-4.883c.933-.559,1-.622,1-1.129a.808.808,0,0,0-.384-.788,7.38,7.38,0,0,1-1.814-2.053,7.164,7.164,0,0,1-.735-3.42c-.1-1.928-.177-2.177-.643-2.177a.845.845,0,0,0-.4.135m.238,5.452a5.368,5.368,0,0,0,1.462,2.332l.507.477-.425.218a5.56,5.56,0,0,0-1.814,1.855c-.207.363-.352.508-.383.415s-.145-.467-.27-.84a5.738,5.738,0,0,0-1.347-2.28l-.415-.384.519-.373a6.925,6.925,0,0,0,1.637-2c.094-.187.177-.332.187-.311s.166.414.342.891" fill="#77787b" fill-rule="evenodd"/>
    <path id="Path_1892" data-name="Path 1892" d="M100.187,106.482c-.146.1-.208.352-.27,1.016a8.656,8.656,0,0,1-.974,2.985,4.4,4.4,0,0,1-2.5,2.3c-.488.135-1.192.84-1.192,1.2,0,.28.269.456,1.015.705a2.22,2.22,0,0,1,1.41,1.327,13.976,13.976,0,0,1,.9,3.794c.166,1.917.342,2.291,1.026,2.291.57,0,.715-.228.84-1.306a6.087,6.087,0,0,1,2.726-4.883c.933-.559,1-.622,1-1.129a.808.808,0,0,0-.384-.788,7.38,7.38,0,0,1-1.814-2.053,7.164,7.164,0,0,1-.735-3.42c-.1-1.928-.177-2.177-.643-2.177A.845.845,0,0,0,100.187,106.482Zm.238,5.452a5.368,5.368,0,0,0,1.462,2.332l.507.477-.425.218a5.56,5.56,0,0,0-1.814,1.855c-.207.363-.352.508-.383.415s-.145-.467-.27-.84a5.738,5.738,0,0,0-1.347-2.28l-.415-.384.519-.373a6.925,6.925,0,0,0,1.637-2c.094-.187.177-.332.187-.311S100.249,111.457,100.425,111.934Z" fill="none" stroke="#77787b" stroke-miterlimit="10" stroke-width="0.77"/>
    <path id="Path_1893" data-name="Path 1893" d="M107.188,14.628c-.3.114-.456.7-.539,1.938a6.543,6.543,0,0,1-1.4,3.96,10.461,10.461,0,0,1-2.6,2.7,5.439,5.439,0,0,1-1.119.456,1.523,1.523,0,0,0-.819.436c-.2.259-.2.269.01.725a1.944,1.944,0,0,0,.3.529,6.545,6.545,0,0,0,.922.166,4.119,4.119,0,0,1,3.276,1.669,11.462,11.462,0,0,1,1.13,3.669c.124.643.331.891.777.891.467,0,.622-.28.705-1.264a6.579,6.579,0,0,1,1.493-3.721,7.411,7.411,0,0,1,1.917-1.545.58.58,0,0,0,.487-.56,1.4,1.4,0,0,0-.953-.891c-.446,0-1.576-1.368-1.939-2.343a18.516,18.516,0,0,1-.777-5.1c-.01-1.347-.031-1.5-.207-1.637a.64.64,0,0,0-.664-.073m.446,7.909a5.411,5.411,0,0,0,1.721,1.866c.373.155.373.217,0,.446a6.909,6.909,0,0,0-1.866,2.031l-.342.643-.29-.6a4.633,4.633,0,0,0-2.644-2.374c-.28-.093-.528-.187-.549-.2a6.605,6.605,0,0,1,.715-.736,11.2,11.2,0,0,0,2.094-2.726l.425-.767.228.922a8.554,8.554,0,0,0,.508,1.493" fill="#77787b" fill-rule="evenodd"/>
    <path id="Path_1894" data-name="Path 1894" d="M107.188,14.628c-.3.114-.456.7-.539,1.938a6.543,6.543,0,0,1-1.4,3.96,10.461,10.461,0,0,1-2.6,2.7,5.439,5.439,0,0,1-1.119.456,1.523,1.523,0,0,0-.819.436c-.2.259-.2.269.01.725a1.944,1.944,0,0,0,.3.529,6.545,6.545,0,0,0,.922.166,4.119,4.119,0,0,1,3.276,1.669,11.462,11.462,0,0,1,1.13,3.669c.124.643.331.891.777.891.467,0,.622-.28.705-1.264a6.579,6.579,0,0,1,1.493-3.721,7.411,7.411,0,0,1,1.917-1.545.58.58,0,0,0,.487-.56,1.4,1.4,0,0,0-.953-.891c-.446,0-1.576-1.368-1.939-2.343a18.516,18.516,0,0,1-.777-5.1c-.01-1.347-.031-1.5-.207-1.637A.64.64,0,0,0,107.188,14.628Zm.446,7.909a5.411,5.411,0,0,0,1.721,1.866c.373.155.373.217,0,.446a6.909,6.909,0,0,0-1.866,2.031l-.342.643-.29-.6a4.633,4.633,0,0,0-2.644-2.374c-.28-.093-.528-.187-.549-.2a6.605,6.605,0,0,1,.715-.736,11.2,11.2,0,0,0,2.094-2.726l.425-.767.228.922A8.554,8.554,0,0,0,107.634,22.537Z" fill="none" stroke="#77787b" stroke-miterlimit="10" stroke-width="0.77"/>
  </g>
</svg>
