<svg id="Group_1100" data-name="Group 1100" xmlns="http://www.w3.org/2000/svg" xmlns:xlink="http://www.w3.org/1999/xlink" width="115.079" height="126.034" viewBox="0 0 115.079 126.034">
  <defs>
    <clipPath id="clip-path">
      <rect id="Rectangle_712" data-name="Rectangle 712" width="115.079" height="126.034" fill="none"/>
    </clipPath>
  </defs>
  <g id="Group_1100-2" data-name="Group 1100" clip-path="url(#clip-path)">
    <path id="Path_1856" data-name="Path 1856" d="M95.008,6.388S95.349,1.51,90.6,1.512H15.918S13.612,1.2,11.073,3.8L3.889,11.154S1.5,12.931,1.5,19.187v95.956s0,3.733,1.421,5.959L13.069,104H90.548s4.043,1.007,4.412-5.134h.048Z" fill="#f27920"/>
    <path id="Path_1857" data-name="Path 1857" d="M95.008,6.388S95.349,1.51,90.6,1.512H15.918S13.612,1.2,11.073,3.8L3.889,11.154S1.5,12.931,1.5,19.187v95.956s0,3.733,1.421,5.959L13.069,104H90.548s4.043,1.007,4.412-5.134h.048Z" fill="none" stroke="#4d4d4f" stroke-linecap="round" stroke-linejoin="round" stroke-width="3"/>
    <line id="Line_246" data-name="Line 246" y1="100.274" transform="translate(13.069 3.725)" fill="none" stroke="#4d4d4f" stroke-linecap="round" stroke-linejoin="round" stroke-width="3"/>
    <path id="Path_1858" data-name="Path 1858" d="M91.871,104,81.843,124.531H9.311s-4.714-.276-6.39-3.429l9.035-15.227s1.041-1.956,2.579-1.956Z" fill="#fff4da"/>
    <path id="Path_1859" data-name="Path 1859" d="M91.871,104,81.843,124.531H9.311s-4.714-.276-6.39-3.429l9.035-15.227s1.041-1.956,2.579-1.956Z" fill="none" stroke="#4d4d4f" stroke-linecap="round" stroke-linejoin="round" stroke-width="3"/>
    <line id="Line_247" data-name="Line 247" x1="74.15" transform="translate(11 124.534)" fill="none" stroke="#4d4d4f" stroke-linecap="round" stroke-linejoin="round" stroke-width="3"/>
    <line id="Line_248" data-name="Line 248" x1="62.077" transform="translate(22.962 114.874)" fill="none" stroke="#4d4d4f" stroke-linecap="round" stroke-linejoin="round" stroke-width="3"/>
    <path id="Path_1860" data-name="Path 1860" d="M82.159,78.011H25.842a2.888,2.888,0,0,1-2.88-2.88V31a2.888,2.888,0,0,1,2.88-2.88H82.159A2.888,2.888,0,0,1,85.039,31V75.131a2.888,2.888,0,0,1-2.88,2.88" fill="#cbe4f7"/>
    <rect id="Rectangle_711" data-name="Rectangle 711" width="62.077" height="49.895" rx="2.88" transform="translate(22.962 28.116)" fill="none" stroke="#4d4d4f" stroke-linecap="round" stroke-linejoin="round" stroke-width="3"/>
    <path id="Path_1861" data-name="Path 1861" d="M42.483,40.411a5.852,5.852,0,1,1-5.852-5.852,5.852,5.852,0,0,1,5.852,5.852" fill="#ffe100"/>
    <path id="Path_1862" data-name="Path 1862" d="M42.483,40.411a5.852,5.852,0,1,1-5.852-5.852A5.852,5.852,0,0,1,42.483,40.411Z" fill="none" stroke="#4d4d4f" stroke-linecap="round" stroke-linejoin="round" stroke-width="3"/>
    <line id="Line_249" data-name="Line 249" x2="45.62" transform="translate(31.191 89.635)" fill="none" stroke="#4d4d4f" stroke-linecap="round" stroke-linejoin="round" stroke-width="3"/>
    <line id="Line_250" data-name="Line 250" x2="45.62" transform="translate(31.604 16.919)" fill="none" stroke="#4d4d4f" stroke-linecap="round" stroke-linejoin="round" stroke-width="3"/>
    <path id="Path_1863" data-name="Path 1863" d="M106.094,53.848h0" fill="#77787b"/>
    <path id="Path_1864" data-name="Path 1864" d="M106.094,53.848h0Z" fill="none" stroke="#77787b" stroke-miterlimit="10" stroke-width="0.314"/>
    <path id="Path_1865" data-name="Path 1865" d="M110.591,48.967q-1.436-1.057-2.908-2.061a24.57,24.57,0,0,0-.309-3.454.432.432,0,0,0-.535-.289.439.439,0,0,0-.289.534c.036.221.067.442.095.663q-.753.429-1.483.9-1.386-.872-2.812-1.685c-.46-.262-.817.43-.387.714-.047-.031-.049-.048-.013.013s.052.094.074.143a4.427,4.427,0,0,1,.181.527c.113.378.2.762.3,1.146.063.259.137.517.218.773q-1.742,1.189-3.446,2.433a.39.39,0,0,0,.213.717q2.194.095,4.39.043c.307.869.608,1.739.96,2.591a7.085,7.085,0,0,0,.8,1.6.787.787,0,0,0,.606.383.754.754,0,0,0,.6-.416,4.841,4.841,0,0,0,.489-1.771c.117-.765.189-1.537.248-2.308.007-.087.011-.174.017-.262q1.367-.1,2.73-.26c.289-.033.556-.453.258-.673m-3.881-4.028c.047.459.079.92.1,1.38q-.528-.35-1.061-.692.484-.339.963-.688m-2.436,3.8c-.206-.554-.417-1.107-.61-1.666q.69-.484,1.385-.963.9.561,1.783,1.148c0,.628-.013,1.256-.045,1.886q-1.163.071-2.326.107c-.062-.171-.123-.342-.187-.512m-1.039-3.075c-.063-.257-.131-.514-.2-.769.468.273.934.553,1.4.836q-.5.328-.99.662c-.074-.241-.144-.484-.205-.729m-2.624,3.62q1.166-.864,2.345-1.707c.188.523.391,1.041.582,1.559.018.046.034.093.051.14q-1.488.03-2.978.008m5.484,4.56h0v0l-.007.006c0-.013.024-.052.023-.034l-.014.025h0m.137-.3c-.007.022-.013.04-.019.055a9.235,9.235,0,0,1-.674-1.43c-.282-.7-.535-1.407-.789-2.116q1-.034,1.991-.1a14.911,14.911,0,0,1-.509,3.59m1.456-5.708q.8.549,1.586,1.119c-.541.05-1.082.1-1.623.135q.03-.629.037-1.254" fill="#77787b"/>
    <path id="Path_1866" data-name="Path 1866" d="M110.591,48.967q-1.436-1.057-2.908-2.061a24.57,24.57,0,0,0-.309-3.454.432.432,0,0,0-.535-.289.439.439,0,0,0-.289.534c.036.221.067.442.095.663q-.753.429-1.483.9-1.386-.872-2.812-1.685c-.46-.262-.817.43-.387.714-.047-.031-.049-.048-.013.013s.052.094.074.143a4.427,4.427,0,0,1,.181.527c.113.378.2.762.3,1.146.063.259.137.517.218.773q-1.742,1.189-3.446,2.433a.39.39,0,0,0,.213.717q2.194.095,4.39.043c.307.869.608,1.739.96,2.591a7.085,7.085,0,0,0,.8,1.6.787.787,0,0,0,.606.383.754.754,0,0,0,.6-.416,4.841,4.841,0,0,0,.489-1.771c.117-.765.189-1.537.248-2.308.007-.087.011-.174.017-.262q1.367-.1,2.73-.26C110.622,49.607,110.889,49.187,110.591,48.967Zm-3.881-4.028c.047.459.079.92.1,1.38q-.528-.35-1.061-.692Q106.231,45.288,106.71,44.939Zm-2.436,3.8c-.206-.554-.417-1.107-.61-1.666q.69-.484,1.385-.963.9.561,1.783,1.148c0,.628-.013,1.256-.045,1.886q-1.163.071-2.326.107C104.4,49.084,104.338,48.913,104.274,48.743Zm-1.039-3.075c-.063-.257-.131-.514-.2-.769.468.273.934.553,1.4.836q-.5.328-.99.662C103.366,46.156,103.3,45.913,103.235,45.668Zm-2.624,3.62q1.166-.864,2.345-1.707c.188.523.391,1.041.582,1.559.018.046.034.093.051.14Q102.1,49.31,100.611,49.288Zm5.484,4.56h0v0l-.007.006c0-.013.024-.052.023-.034l-.014.025Zm.137-.3c-.007.022-.013.04-.019.055a9.235,9.235,0,0,1-.674-1.43c-.282-.7-.535-1.407-.789-2.116q1-.034,1.991-.1A14.911,14.911,0,0,1,106.232,53.548Zm1.456-5.708q.8.549,1.586,1.119c-.541.05-1.082.1-1.623.135Q107.681,48.465,107.688,47.84Z" fill="none" stroke="#77787b" stroke-miterlimit="10" stroke-width="0.314"/>
    <path id="Path_1867" data-name="Path 1867" d="M108.062,7.312h0" fill="#77787b"/>
    <path id="Path_1868" data-name="Path 1868" d="M108.062,7.312h0Z" fill="none" stroke="#77787b" stroke-miterlimit="10" stroke-width="0.282"/>
    <path id="Path_1869" data-name="Path 1869" d="M106.528,1.557q-1.493.579-2.96,1.211A21.929,21.929,0,0,0,100.8,1.342a.387.387,0,0,0-.476.265.4.4,0,0,0,.265.477c.185.079.367.162.548.246q-.036.777-.033,1.555-1.328.632-2.629,1.32c-.42.223-.067.826.354.637-.046.02-.06.014,0,.016a1.4,1.4,0,0,1,.144.012,3.863,3.863,0,0,1,.486.117c.341.1.676.212,1.011.325.227.077.458.145.691.207q.063,1.892.186,3.781a.35.35,0,0,0,.645.183q1.128-1.617,2.144-3.3c.806.185,1.61.376,2.425.519a6.384,6.384,0,0,0,1.6.163.71.71,0,0,0,.582-.275.678.678,0,0,0-.025-.657,4.357,4.357,0,0,0-1.107-1.222c-.523-.457-1.073-.882-1.629-1.3l-.19-.139q.579-1.086,1.115-2.193c.115-.235-.075-.639-.385-.519m-4.918,1q.557.279,1.093.59-.519.232-1.035.471c-.016-.354-.035-.707-.058-1.061m1.71,3.675c-.519-.11-1.039-.216-1.555-.338-.024-.5-.044-1.009-.064-1.513q.858-.413,1.727-.8c.478.3.946.614,1.408.941q-.507.914-1.038,1.813c-.159-.035-.318-.071-.478-.105m-2.829-.692c-.225-.075-.452-.148-.68-.215q.648-.336,1.305-.657c.007.356.015.712.026,1.068-.219-.06-.436-.124-.651-.2m1.481,3.729q-.095-1.3-.166-2.6c.486.109.977.205,1.461.309l.13.029q-.692,1.141-1.425,2.259m6.091-1.961h0v.01c-.008-.009-.028-.043-.014-.034l.012.023h0m-.161-.248.033.041a8.131,8.131,0,0,1-1.408-.178c-.665-.122-1.323-.27-1.982-.419q.453-.771.882-1.556A13.445,13.445,0,0,1,107.9,7.062m-3.624-3.848q.8-.344,1.61-.663-.333.651-.678,1.294-.46-.326-.932-.631" fill="#77787b"/>
    <path id="Path_1870" data-name="Path 1870" d="M106.528,1.557q-1.493.579-2.96,1.211A21.929,21.929,0,0,0,100.8,1.342a.387.387,0,0,0-.476.265.4.4,0,0,0,.265.477c.185.079.367.162.548.246q-.036.777-.033,1.555-1.328.632-2.629,1.32c-.42.223-.067.826.354.637-.046.02-.06.014,0,.016a1.4,1.4,0,0,1,.144.012,3.863,3.863,0,0,1,.486.117c.341.1.676.212,1.011.325.227.077.458.145.691.207q.063,1.892.186,3.781a.35.35,0,0,0,.645.183q1.128-1.617,2.144-3.3c.806.185,1.61.376,2.425.519a6.384,6.384,0,0,0,1.6.163.71.71,0,0,0,.582-.275.678.678,0,0,0-.025-.657,4.357,4.357,0,0,0-1.107-1.222c-.523-.457-1.073-.882-1.629-1.3l-.19-.139q.579-1.086,1.115-2.193C107.028,1.841,106.838,1.437,106.528,1.557Zm-4.918,1q.557.279,1.093.59-.519.232-1.035.471C101.652,3.266,101.633,2.913,101.61,2.559Zm1.71,3.675c-.519-.11-1.039-.216-1.555-.338-.024-.5-.044-1.009-.064-1.513q.858-.413,1.727-.8c.478.3.946.614,1.408.941q-.507.914-1.038,1.813C103.639,6.3,103.48,6.268,103.32,6.234Zm-2.829-.692c-.225-.075-.452-.148-.68-.215q.648-.336,1.305-.657c.007.356.015.712.026,1.068C100.923,5.678,100.706,5.614,100.491,5.542Zm1.481,3.729q-.095-1.3-.166-2.6c.486.109.977.205,1.461.309l.13.029Q102.705,8.153,101.972,9.271Zm6.091-1.961h0v.01c-.008-.009-.028-.043-.014-.034l.012.023Zm-.161-.248.033.041a8.131,8.131,0,0,1-1.408-.178c-.665-.122-1.323-.27-1.982-.419q.453-.771.882-1.556A13.445,13.445,0,0,1,107.9,7.062Zm-3.624-3.848q.8-.344,1.61-.663-.333.651-.678,1.294Q104.75,3.52,104.278,3.214Z" fill="none" stroke="#77787b" stroke-miterlimit="10" stroke-width="0.282"/>
    <path id="Path_1871" data-name="Path 1871" d="M113.959,29.145a13.1,13.1,0,0,0-3.311.375q-.86-1.1-1.782-2.156c.018-.04.036-.081.055-.122.092-.2-.2-.364-.348-.215l-.119-.138c-.449-.5-1.449.014-.993.521.187.209.369.421.552.632q-.614,1.187-1.1,2.41l-5.684,1.39c-.652.159-.357.973.294.85-.146.028.076.02.023.008.075.017.151.029.226.048a4.5,4.5,0,0,1,.489.159c.4.149.786.32,1.174.489.734.319,1.507.573,2.277.827A28.936,28.936,0,0,0,105,38.567c-.028.332.546.514.791.26q1.653-1.715,3.289-3.441c1.7.6,3.406,1.188,5.142,1.7a.5.5,0,0,0,.611-.711c-.821-1.5-1.5-3.034-2.442-4.479q.968-1.021,1.936-2.042c.273-.288.072-.7-.372-.714m-1.063.883-1.038,1.1c-.2-.279-.4-.558-.611-.833a13.712,13.712,0,0,1,1.649-.267m-5.036,1.094c.742-.184,1.483-.37,2.226-.551.345.449.685.9,1.014,1.361q-1.122,1.188-2.241,2.379-1.084-.376-2.171-.744.285-1.167.659-2.318l.513-.127m.523-2.658q.563.661,1.1,1.337c-.6.153-1.183.311-1.764.453l-.037.009q.326-.906.7-1.8m-4.83,3.976c-.116-.049-.24-.1-.368-.16l3.35-.83q-.329.926-.591,1.867c-.81-.271-1.609-.547-2.391-.877m2.473,4.9a28.88,28.88,0,0,1,.456-2.855c.559.19,1.116.385,1.674.58q-1.068,1.135-2.13,2.275m7.29-1.528c-1.181-.371-2.35-.769-3.516-1.173q.91-.96,1.822-1.92c.633,1.006,1.154,2.05,1.694,3.093" fill="#77787b"/>
    <path id="Path_1872" data-name="Path 1872" d="M113.959,29.145a13.1,13.1,0,0,0-3.311.375q-.86-1.1-1.782-2.156c.018-.04.036-.081.055-.122.092-.2-.2-.364-.348-.215l-.119-.138c-.449-.5-1.449.014-.993.521.187.209.369.421.552.632q-.614,1.187-1.1,2.41l-5.684,1.39c-.652.159-.357.973.294.85-.146.028.076.02.023.008.075.017.151.029.226.048a4.5,4.5,0,0,1,.489.159c.4.149.786.32,1.174.489.734.319,1.507.573,2.277.827A28.936,28.936,0,0,0,105,38.567c-.028.332.546.514.791.26q1.653-1.715,3.289-3.441c1.7.6,3.406,1.188,5.142,1.7a.5.5,0,0,0,.611-.711c-.821-1.5-1.5-3.034-2.442-4.479q.968-1.021,1.936-2.042C114.6,29.571,114.4,29.161,113.959,29.145Zm-1.063.883-1.038,1.1c-.2-.279-.4-.558-.611-.833A13.712,13.712,0,0,1,112.9,30.028Zm-5.036,1.094c.742-.184,1.483-.37,2.226-.551.345.449.685.9,1.014,1.361q-1.122,1.188-2.241,2.379-1.084-.376-2.171-.744.285-1.167.659-2.318Zm.523-2.658q.563.661,1.1,1.337c-.6.153-1.183.311-1.764.453l-.037.009Q108.009,29.357,108.383,28.464Zm-4.83,3.976c-.116-.049-.24-.1-.368-.16l3.35-.83q-.329.926-.591,1.867C105.134,33.046,104.335,32.77,103.553,32.44Zm2.473,4.9a28.88,28.88,0,0,1,.456-2.855c.559.19,1.116.385,1.674.58Q107.088,36.2,106.026,37.337Zm7.29-1.528c-1.181-.371-2.35-.769-3.516-1.173q.91-.96,1.822-1.92C112.255,33.722,112.776,34.766,113.316,35.809Z" fill="none" stroke="#77787b" stroke-miterlimit="10" stroke-width="0.373"/>
    <path id="Path_1873" data-name="Path 1873" d="M22.962,71.91,51.225,43.34a4.046,4.046,0,0,1,6.5,0L85.039,71.366s1.328,6.645-3.4,6.645H26.358s-4.345-.295-3.4-6.1" fill="#afb1b4"/>
    <path id="Path_1874" data-name="Path 1874" d="M22.962,71.91,51.225,43.34a4.046,4.046,0,0,1,6.5,0L85.039,71.366s1.328,6.645-3.4,6.645H26.358S22.013,77.716,22.962,71.91Z" fill="none" stroke="#4d4d4f" stroke-linecap="round" stroke-linejoin="round" stroke-width="3"/>
    <path id="Path_1875" data-name="Path 1875" d="M66.76,48.9c-2.826,3.232-3.884,4.554-5.994,7.216l5.248,5.207c2.549-2.053,4.051-3.288,7.126-6.013Z" fill="#bed447"/>
    <path id="Path_1876" data-name="Path 1876" d="M66.76,48.9c-2.826,3.232-3.884,4.554-5.994,7.216l5.248,5.207c2.549-2.053,4.051-3.288,7.126-6.013Z" fill="none" stroke="#4d4d4f" stroke-linecap="round" stroke-linejoin="round" stroke-width="3"/>
    <path id="Path_1877" data-name="Path 1877" d="M111.572,10.2c-2.157-2.141-20.661,13.478-41.805,34.788-1.015,1.023-2.167,2.2-3.153,3.21l7.059,7.42c1.077-1.066,2.2-2.11,3.3-3.21,21.144-21.31,36.761-40.068,34.6-42.208" fill="#bed447"/>
    <path id="Path_1878" data-name="Path 1878" d="M111.572,10.2c-2.157-2.141-20.661,13.478-41.805,34.788-1.015,1.023-2.167,2.2-3.153,3.21l7.059,7.42c1.077-1.066,2.2-2.11,3.3-3.21C98.112,31.1,113.729,12.344,111.572,10.2Z" fill="none" stroke="#4d4d4f" stroke-linecap="round" stroke-linejoin="round" stroke-width="3"/>
    <path id="Path_1879" data-name="Path 1879" d="M65.81,61.3,61.1,56.63S49.347,53.6,45.808,76.788c0,0,1.84-1.725,9.894-4.124,0,0,11.617-2.78,10.108-11.363" fill="#4d4d4f"/>
    <path id="Path_1880" data-name="Path 1880" d="M65.81,61.3,61.1,56.63S49.347,53.6,45.808,76.788c0,0,1.84-1.725,9.894-4.124C55.7,72.664,67.319,69.884,65.81,61.3Z" fill="none" stroke="#4d4d4f" stroke-linecap="round" stroke-linejoin="round" stroke-width="3"/>
    <path id="Path_1881" data-name="Path 1881" d="M46.062,50.611s1.68,2.043,4.132-.227c0,0,.559,2.461,2.5,2.366a2.674,2.674,0,0,0,2.136-2.729s.951,1.869,2.742,1.366c0,0,1-.165.715-2.082a4.547,4.547,0,0,0,4.424,1.321L56.188,43.8a2.981,2.981,0,0,0-1.771-.772,3.267,3.267,0,0,0-2.089,1.09Z" fill="#fff"/>
  </g>
</svg>
