<svg id="Group_1110" data-name="Group 1110" xmlns="http://www.w3.org/2000/svg" xmlns:xlink="http://www.w3.org/1999/xlink" width="117.767" height="127.526" viewBox="0 0 117.767 127.526">
  <defs>
    <clipPath id="clip-path">
      <rect id="Rectangle_735" data-name="Rectangle 735" width="117.767" height="127.526" fill="none"/>
    </clipPath>
  </defs>
  <g id="Group_1109" data-name="Group 1109" clip-path="url(#clip-path)">
    <path id="Path_2057" data-name="Path 2057" d="M95.1,1.5H26.8L1.864,26.659v93.6a5.777,5.777,0,0,0,5.76,5.76H95.1a5.777,5.777,0,0,0,5.76-5.76v-113A5.777,5.777,0,0,0,95.1,1.5" fill="#fff4da"/>
    <path id="Path_2058" data-name="Path 2058" d="M95.1,1.5H26.8L1.864,26.659v93.6a5.777,5.777,0,0,0,5.76,5.76H95.1a5.777,5.777,0,0,0,5.76-5.76v-113A5.777,5.777,0,0,0,95.1,1.5Z" fill="none" stroke="#4d4d4f" stroke-linecap="round" stroke-linejoin="round" stroke-width="3.01"/>
    <line id="Line_274" data-name="Line 274" x1="36.612" transform="translate(24.139 39.503)" fill="none" stroke="#4d4d4f" stroke-linecap="round" stroke-linejoin="round" stroke-width="3"/>
    <line id="Line_275" data-name="Line 275" x1="40.034" transform="translate(24.139 58.233)" fill="none" stroke="#4d4d4f" stroke-linecap="round" stroke-linejoin="round" stroke-width="3"/>
    <line id="Line_276" data-name="Line 276" x1="24.484" transform="translate(24.139 77.288)" fill="none" stroke="#4d4d4f" stroke-linecap="round" stroke-linejoin="round" stroke-width="3"/>
    <line id="Line_277" data-name="Line 277" x1="18.508" transform="translate(24.139 101.219)" fill="none" stroke="#4d4d4f" stroke-linecap="round" stroke-linejoin="round" stroke-width="3"/>
    <path id="Path_2059" data-name="Path 2059" d="M26.614,1.5V26.254H1.865Z" fill="#b0b2b5"/>
    <path id="Path_2060" data-name="Path 2060" d="M26.614,1.5V26.254H1.865Z" fill="none" stroke="#4d4d4f" stroke-linecap="round" stroke-linejoin="round" stroke-width="3"/>
    <path id="Path_2061" data-name="Path 2061" d="M77.464,100.353c0,7.172-14.576,12.986-32.556,12.986s-32.555-5.814-32.555-12.986S26.928,87.367,44.908,87.367,77.464,93.181,77.464,100.353Z" fill="none" stroke="#eb1c24" stroke-linecap="round" stroke-linejoin="round" stroke-width="2.842"/>
    <path id="Path_2062" data-name="Path 2062" d="M42.623,101.219,52.946,76.963s9.523,2.261,13.932,13.932Z" fill="#afb1b4"/>
    <path id="Path_2063" data-name="Path 2063" d="M42.623,101.219,52.946,76.963s9.523,2.261,13.932,13.932Z" fill="none" stroke="#4d4d4f" stroke-linecap="round" stroke-linejoin="round" stroke-width="3"/>
    <path id="Path_2064" data-name="Path 2064" d="M42.623,101.219,47.8,89.761s5.142,1.51,6.025,6.689Z" fill="#eb1c24"/>
    <path id="Path_2065" data-name="Path 2065" d="M42.623,101.219,47.8,89.761s5.142,1.51,6.025,6.689Z" fill="none" stroke="#4d4d4f" stroke-linecap="round" stroke-linejoin="round" stroke-width="3"/>
    <path id="Path_2066" data-name="Path 2066" d="M98.46,35.9l6.87-7.36s9.063.521,10.42,9.669l-7.164,6.633S106.729,38.614,98.46,35.9" fill="#afb1b4"/>
    <path id="Path_2067" data-name="Path 2067" d="M98.46,35.9l6.87-7.36s9.063.521,10.42,9.669l-7.164,6.633S106.729,38.614,98.46,35.9Z" fill="none" stroke="#4d4d4f" stroke-linecap="round" stroke-linejoin="round" stroke-width="3"/>
    <path id="Path_2068" data-name="Path 2068" d="M52.946,76.963,96.514,33.4s12.687,1.629,14.172,13.7l-43.808,43.8A21.59,21.59,0,0,0,52.946,76.963" fill="#eb1c24"/>
    <path id="Path_2069" data-name="Path 2069" d="M52.946,76.963,96.514,33.4s12.687,1.629,14.172,13.7l-43.808,43.8A21.59,21.59,0,0,0,52.946,76.963Z" fill="none" stroke="#4d4d4f" stroke-linecap="round" stroke-linejoin="round" stroke-width="3"/>
    <path id="Path_2070" data-name="Path 2070" d="M70.465,14.088c-1.255.5-1.088,1.394.474,2.628a18.226,18.226,0,0,1,3.235,3.953c1.032,1.577,1.869,2.948,1.869,3.017a30.217,30.217,0,0,1-2.287,2.6A105.582,105.582,0,0,0,65.389,36.6c-.5.914-.5,1.029-.111,1.554.641.777,1.673.709,2.705-.205.474-.389,2.928-2.948,5.466-5.645s4.685-4.935,4.8-4.981a28.444,28.444,0,0,1,2.343,3.336c2.705,4.2,3.513,5.073,4.8,5.073a1.57,1.57,0,0,0,1.7-2.079c-.167-.892-2.286-4.525-4.657-7.953L81.286,24l3.235-2.6c2.342-1.851,3.43-2.582,3.9-2.582a1.4,1.4,0,0,0,.948-2.513c-1.56-1.189-4.1-.229-8.477,3.244l-1.7,1.349L77.855,19c-1.952-2.788-3.346-4.2-4.713-4.753-1.366-.526-1.729-.548-2.677-.16" fill="#eb1c24" fill-rule="evenodd"/>
    <path id="Path_2071" data-name="Path 2071" d="M116.474,56.951c-1.36-1-4.683-.632-5.8.658a3.332,3.332,0,0,0-.487,3.494,4.1,4.1,0,0,0,2.523,2.874,4.781,4.781,0,0,0,4.464-1.122,2.821,2.821,0,0,0,.518-2.279,2.847,2.847,0,0,1-.04-1,2.977,2.977,0,0,0-1.176-2.626m-.912,3.732c-.04.558-.126.639-.819.794a1.587,1.587,0,0,1-2.086-1.7c.081-.574.583-.8,1.695-.785.925.013,1.265.516,1.21,1.693" fill="#77787b" fill-rule="evenodd"/>
    <path id="Path_2072" data-name="Path 2072" d="M113.667,75.225a2.544,2.544,0,0,0-2.472-.347,1.863,1.863,0,0,0-1.374,1.72,2.307,2.307,0,0,0,2.916,2.555,1.891,1.891,0,0,0,1.649-2.042c.1-1.242.06-1.344-.719-1.886m-1.715,2.114c-.085-.037-.129-.209-.1-.363.038-.2.168-.232.465-.136.4.124.391.153.109.334a.871.871,0,0,1-.478.165" fill="#77787b" fill-rule="evenodd"/>
    <path id="Path_2073" data-name="Path 2073" d="M108.7,66.882c-.324-.462-2.584-.633-3.063-.232a1.776,1.776,0,0,0,.415,3.209,2.052,2.052,0,0,0,2.874-1.085,1.556,1.556,0,0,0-.226-1.892" fill="#77787b" fill-rule="evenodd"/>
    <path id="Path_2074" data-name="Path 2074" d="M108.909,84.944a2.38,2.38,0,0,0-2.71-.771,2.468,2.468,0,0,0-.839,3.916,2.26,2.26,0,0,0,4.083-1.609,4.538,4.538,0,0,0-.174-.922c-.024-.061-.2-.323-.36-.614m-1.4,2.014c-.1.041-.26-.062-.325-.225s-.018-.346.084-.387c.122-.048.26.063.325.226s.039.339-.084.386" fill="#77787b" fill-rule="evenodd"/>
    <path id="Path_2075" data-name="Path 2075" d="M16.931,5.523C17,3.838,14.85,1.28,13.156,1.067A3.335,3.335,0,0,0,9.981,2.606,4.107,4.107,0,0,0,9,6.3a4.784,4.784,0,0,0,3.416,3.086A2.827,2.827,0,0,0,14.6,8.55a2.845,2.845,0,0,1,.807-.589,2.978,2.978,0,0,0,1.529-2.438M13.322,6.841c-.486.278-.6.251-1.116-.239a1.587,1.587,0,0,1,.254-2.68c.522-.252.986.042,1.6.972.5.776.275,1.338-.734,1.947" fill="#77787b" fill-rule="evenodd"/>
    <path id="Path_2076" data-name="Path 2076" d="M4.6,17.918a2.548,2.548,0,0,0-1.087-2.247,1.866,1.866,0,0,0-2.194-.184,2.306,2.306,0,0,0-.5,3.844,1.89,1.89,0,0,0,2.613.235c1.089-.608,1.151-.7,1.168-1.648M1.887,17.67c-.017-.092.1-.223.248-.282.191-.082.286.011.372.311.121.4.091.41-.218.276a.867.867,0,0,1-.4-.305" fill="#77787b" fill-rule="evenodd"/>
    <path id="Path_2077" data-name="Path 2077" d="M4.556,6.321c.2-.526-.912-2.5-1.511-2.675A1.776,1.776,0,0,0,.609,5.777a2.053,2.053,0,0,0,2.5,1.785A1.558,1.558,0,0,0,4.556,6.321" fill="#77787b" fill-rule="evenodd"/>
  </g>
</svg>
